<svg xmlns="http://www.w3.org/2000/svg" viewBox="0 0 32 32">
  <rect width="32" height="32" rx="6" fill="#073642"/>
  <g transform="translate(6,5)">
    <!-- Book spine -->
    <path d="M10 0 L10 22" stroke="#586e75" stroke-width="1.5" fill="none"/>
    <!-- Left page -->
    <path d="M9 1 C7 1 2 1.5 1 2.5 L1 20.5 C2 19.5 7 19 9 19 Z" fill="#002b36" stroke="#2aa198" stroke-width="0.8"/>
    <!-- Right page -->
    <path d="M11 1 C13 1 18 1.5 19 2.5 L19 20.5 C18 19.5 13 19 11 19 Z" fill="#002b36" stroke="#2aa198" stroke-width="0.8"/>
    <!-- Text lines left -->
    <line x1="3.5" y1="6" x2="8" y2="6" stroke="#859900" stroke-width="0.7" opacity="0.7"/>
    <line x1="3.5" y1="9" x2="7.5" y2="9" stroke="#859900" stroke-width="0.7" opacity="0.5"/>
    <line x1="3.5" y1="12" x2="8" y2="12" stroke="#859900" stroke-width="0.7" opacity="0.7"/>
    <line x1="3.5" y1="15" x2="7" y2="15" stroke="#859900" stroke-width="0.7" opacity="0.5"/>
    <!-- Text lines right -->
    <line x1="12" y1="6" x2="16.5" y2="6" stroke="#859900" stroke-width="0.7" opacity="0.7"/>
    <line x1="12" y1="9" x2="16" y2="9" stroke="#859900" stroke-width="0.7" opacity="0.5"/>
    <line x1="12" y1="12" x2="16.5" y2="12" stroke="#859900" stroke-width="0.7" opacity="0.7"/>
    <line x1="12" y1="15" x2="15.5" y2="15" stroke="#859900" stroke-width="0.7" opacity="0.5"/>
  </g>
</svg>
